<?xml version="1.0" encoding="UTF-8"?>
<svg width="150px" height="40px" viewBox="0 0 150 40" version="1.1" xmlns="http://www.w3.org/2000/svg" xmlns:xlink="http://www.w3.org/1999/xlink">
    <!-- Generator: Sketch 47.1 (45422) - http://www.bohemiancoding.com/sketch -->
    <title>logo</title>
    <desc>Created with Sketch.</desc>
    <defs></defs>
    <g id="Page-1" stroke="none" stroke-width="1" fill="none" fill-rule="evenodd">
        <g id="Apple-TV" transform="translate(-360.000000, -31.000000)" fill="#FFFFFF">
            <g id="logo" transform="translate(360.000000, 31.000000)">
                <g id="text" transform="translate(49.492386, 6.852792)">
                    <path d="M4.13581218,18.4133756 L0.320329949,18.4133756 L0.320329949,5.59484772 L4.13581218,5.59484772 L4.13581218,7.46109137 C4.48378173,6.82073604 4.99545685,6.30373096 5.67312183,5.91007614 C6.35002538,5.51642132 7.07337563,5.31997462 7.84164975,5.31997462 C9.28682741,5.31997462 10.4304822,5.76845178 11.2726142,6.66464467 C12.1139848,7.56236041 12.5358122,8.92530457 12.5358122,10.755 L12.5358122,18.4133756 L8.72032995,18.4133756 L8.72032995,11.5788579 C8.72032995,10.7184518 8.50941624,10.0780964 8.08911168,9.65703046 C7.66728426,9.23596447 7.13733503,9.02581218 6.4969797,9.02581218 C5.81931472,9.02581218 5.25662437,9.21845178 4.80890863,9.60220812 C4.35967005,9.98672589 4.13581218,10.6636294 4.13581218,11.6336802 L4.13581218,18.4133756 Z" id="Fill-1"></path>
                    <path d="M23.4598477,10.8645685 C23.4057868,10.4800508 23.2862437,10.1465482 23.1035025,9.86329949 C22.92,9.57928934 22.7007107,9.35086294 22.4441117,9.17649746 C22.1882741,9.0028934 21.913401,8.87497462 21.6217766,8.7919797 C21.327868,8.71050761 21.0446193,8.66862944 20.7705076,8.66862944 C20.4956345,8.66862944 20.2116244,8.70593909 19.9192386,8.77903553 C19.6268528,8.85213198 19.3428426,8.97548223 19.0679695,9.14908629 C18.7938579,9.32345178 18.5517259,9.55187817 18.3408122,9.83588832 C18.1306599,10.1191371 17.9882741,10.4625381 17.9151777,10.8645685 L23.4598477,10.8645685 Z M26.5892893,16.0803046 C26.2603553,16.5561929 25.8750761,16.9635533 25.4364975,17.3016244 C24.9971574,17.6404569 24.5174619,17.91 23.9951269,18.1110152 C23.4743147,18.3127919 22.9382741,18.4589848 22.3900508,18.5503553 C21.8403046,18.6417259 21.2913198,18.6881726 20.7430964,18.6881726 C19.827868,18.6881726 18.9628934,18.5275127 18.148934,18.2077157 C17.3342132,17.8879188 16.6253299,17.4295431 16.0215228,16.8348731 C15.4169543,16.2409645 14.9372589,15.5313198 14.5801523,14.7074619 C14.2238071,13.8836041 14.0448731,12.9698985 14.0448731,11.9625381 C14.0448731,10.9567005 14.2238071,10.0407107 14.5801523,9.21837563 C14.9372589,8.39451777 15.4169543,7.69477157 16.0215228,7.11761421 C16.6253299,6.54121827 17.3342132,6.09807107 18.148934,5.78741117 C18.9628934,5.47598985 19.827868,5.31989848 20.7430964,5.31989848 C21.6575635,5.31989848 22.513401,5.4851269 23.3090863,5.81406091 C24.105533,6.14375635 24.7999492,6.60060914 25.3953807,7.18690355 C25.9900508,7.77243655 26.4560406,8.48208122 26.7948731,9.31431472 C27.1337056,10.1465482 27.3027411,11.0663452 27.3027411,12.0721827 C27.3027411,12.2374112 27.2981726,12.4338579 27.2890355,12.6630457 C27.2798985,12.8922335 27.2661929,13.0879188 27.2486802,13.2531472 L17.8603553,13.2531472 C17.9151777,13.6186294 18.0438579,13.9391878 18.2448731,14.2140609 C18.4458883,14.4881726 18.6979188,14.7127919 18.9994416,14.8863959 C19.3017259,15.0607614 19.6314213,15.1879188 19.9877665,15.2701523 C20.3441117,15.3531472 20.6875127,15.394264 21.0172081,15.394264 C21.5479188,15.394264 22.068731,15.2983249 22.5819289,15.1056853 C23.0943655,14.9138071 23.5062944,14.6077157 23.8169543,14.1866497 L26.5892893,16.0803046 Z" id="Fill-3"></path>
                    <polygon id="Fill-5" points="27.6870305 5.59492386 32.133731 5.59492386 34.0555584 8.42208122 35.9492132 5.59492386 40.369264 5.59492386 36.1410914 11.4685279 41.1649492 18.4134518 36.7448985 18.4134518 34.0281472 14.4875635 31.2832234 18.4134518 26.8631726 18.4134518 31.9144416 11.4685279"></polygon>
                    <polygon id="Fill-7" points="49.646269 5.59492386 49.646269 8.61395939 46.9569289 8.61395939 46.9569289 18.4134518 43.1680964 18.4134518 43.1680964 8.61395939 40.8351015 8.61395939 40.8351015 5.59492386 43.1680964 5.59492386 43.1680964 0.681472081 46.9569289 0.681472081 46.9569289 5.59492386"></polygon>
                    <path d="M54.7520558,12.045533 C54.7520558,12.5214213 54.8350508,12.9508629 54.9995178,13.3353807 C55.1639848,13.7191371 55.3832741,14.0404569 55.6581472,14.295533 C55.9322589,14.5528934 56.2482487,14.7493401 56.6045939,14.8863959 C56.9617005,15.0234518 57.3317513,15.0919797 57.716269,15.0919797 C58.5401269,15.0919797 59.2398731,14.817868 59.8170305,14.2688832 C60.3934264,13.7191371 60.6812437,12.9782741 60.6812437,12.045533 C60.6812437,11.5696447 60.6028173,11.1394416 60.4474873,10.7549239 C60.2921574,10.3711675 60.0774365,10.0460406 59.8025635,9.78030457 C59.5276904,9.51532995 59.2132234,9.30974619 58.8553553,9.16279188 C58.4990102,9.01659898 58.1190609,8.94350254 57.716269,8.94350254 C57.3142386,8.94350254 56.9342893,9.01659898 56.5779442,9.16279188 C56.2200761,9.30974619 55.9048477,9.51989848 55.630736,9.79477157 C55.3558629,10.0688832 55.1403807,10.3985787 54.9850508,10.782335 C54.8297208,11.1668528 54.7520558,11.5886802 54.7520558,12.045533 L54.7520558,12.045533 Z M54.6698223,5.59477157 L54.6698223,7.18690355 C54.9804822,6.60060914 55.4837817,6.14375635 56.1797208,5.81406091 C56.8748985,5.4851269 57.6248985,5.31989848 58.4304822,5.31989848 C59.2535787,5.31989848 60.0401269,5.47598985 60.7908883,5.78741117 C61.5416497,6.09807107 62.1995178,6.54121827 62.7667766,7.11761421 C63.3340355,7.69477157 63.7870812,8.39451777 64.1259137,9.21837563 C64.4647462,10.0407107 64.6337817,10.9567005 64.6337817,11.9625381 C64.6337817,12.9881726 64.4647462,13.9171066 64.1259137,14.7493401 C63.7870812,15.5815736 63.3340355,16.2904569 62.7667766,16.8767513 C62.1995178,17.4615228 61.5416497,17.91 60.7908883,18.2214213 C60.0401269,18.5328426 59.2535787,18.6881726 58.4304822,18.6881726 C57.6248985,18.6881726 56.8748985,18.5275127 56.1797208,18.2077157 C55.4837817,17.8879188 54.9804822,17.4348731 54.6698223,16.8493401 L54.6698223,24.6995939 L50.8817513,24.6995939 L50.8817513,5.59477157 L54.6698223,5.59477157 Z" id="Fill-9"></path>
                    <path d="M72.1818274,14.8995685 C72.9866497,14.8995685 73.6734518,14.6345939 74.2407107,14.1038832 C74.8072081,13.5731726 75.0919797,12.8589594 75.0919797,11.9627665 C75.0919797,11.0840863 74.8072081,10.380533 74.2407107,9.84906091 C73.6734518,9.31911168 72.9866497,9.05261421 72.1818274,9.05261421 C71.3945178,9.05261421 70.7176142,9.31911168 70.1503553,9.84906091 C69.5830964,10.380533 69.2990863,11.0840863 69.2990863,11.9627665 C69.2990863,12.8589594 69.5830964,13.5731726 70.1503553,14.1038832 C70.7176142,14.6345939 71.3945178,14.8995685 72.1818274,14.8995685 M72.1818274,18.6328173 C71.266599,18.6328173 70.4069543,18.4721574 69.602132,18.1531218 C68.7957868,17.8325635 68.0914721,17.3840863 67.487665,16.8069289 C66.8838579,16.2312944 66.4079695,15.5307868 66.0615228,14.7076904 C65.7127919,13.8838325 65.5391878,12.9693655 65.5391878,11.9627665 C65.5391878,10.9569289 65.7127919,10.0409391 66.0615228,9.21784264 C66.4079695,8.39474619 66.8838579,7.695 67.487665,7.11784264 C68.0914721,6.5414467 68.7957868,6.09829949 69.602132,5.78687817 C70.4069543,5.47545685 71.266599,5.3201269 72.1818274,5.3201269 C73.0780203,5.3201269 73.9338579,5.47545685 74.7485787,5.78687817 C75.5625381,6.09829949 76.2721827,6.5414467 76.8759898,7.11784264 C77.479797,7.695 77.9602538,8.39474619 78.316599,9.21784264 C78.6737056,10.0409391 78.8518782,10.9569289 78.8518782,11.9627665 C78.8518782,12.9693655 78.6737056,13.8838325 78.316599,14.7076904 C77.9602538,15.5307868 77.479797,16.2312944 76.8759898,16.8069289 C76.2721827,17.3840863 75.5625381,17.8325635 74.7485787,18.1531218 C73.9338579,18.4721574 73.0780203,18.6328173 72.1818274,18.6328173" id="Fill-11"></path>
                    <path d="M83.8200761,13.1430457 C82.8500254,12.8872081 82.1045939,12.5803553 81.5822589,12.2232487 C81.0614467,11.8669036 80.6814975,11.4960914 80.443934,11.1115736 C80.2056091,10.7278173 80.0685533,10.347868 80.0320051,9.97248731 C79.9946954,9.59786802 79.9771827,9.26360406 79.9771827,8.97121827 C79.9771827,8.49532995 80.1142386,8.03695431 80.3891117,7.59837563 C80.6632234,7.15903553 81.0241371,6.77071066 81.4733756,6.43187817 C81.9210914,6.09304569 82.4479949,5.82350254 83.051802,5.62172589 C83.6556091,5.42071066 84.2959645,5.32020305 84.972868,5.32020305 C85.6132234,5.32020305 86.2444416,5.39329949 86.8672843,5.53949239 C87.4886041,5.6864467 88.0520558,5.92857868 88.5553553,6.26741117 C89.0586548,6.60624365 89.4652538,7.04558376 89.7759137,7.58467005 C90.087335,8.12451777 90.2434264,8.78771574 90.2434264,9.57502538 L86.6472335,9.57502538 C86.6289594,9.09913706 86.4599239,8.79228426 86.1393655,8.65522843 C85.8195685,8.51817259 85.5035787,8.44888325 85.1921574,8.44888325 C84.7710914,8.44888325 84.4375888,8.5364467 84.1908883,8.71005076 C83.9434264,8.88365482 83.8292132,9.11741117 83.8474873,9.41055838 C83.8657614,9.6115736 83.9617005,9.79888325 84.136066,9.97248731 C84.3089086,10.1468528 84.5883503,10.2793401 84.972868,10.3707107 L87.1413959,10.9471066 C87.9104315,11.1671574 88.5271827,11.4458376 88.9946954,11.7839086 C89.4606853,12.1227411 89.8124619,12.4707107 90.0507868,12.8270558 C90.2883503,13.1841624 90.4444416,13.532132 90.5175381,13.870203 C90.5906345,14.2090355 90.6271827,14.4785787 90.6271827,14.6795939 C90.6271827,15.3572589 90.4627157,15.9481218 90.1337817,16.4506599 C89.8040863,16.9539594 89.3784518,17.3704569 88.8568782,17.7001523 C88.3353046,18.0290863 87.745203,18.2765482 87.0865736,18.4410152 C86.4279442,18.6054822 85.7594162,18.6884772 85.0832741,18.6884772 C84.4238832,18.6884772 83.7789594,18.5917766 83.1477411,18.3998985 C82.5165228,18.2080203 81.9485025,17.9240102 81.445203,17.5486294 C80.9419036,17.1732487 80.530736,16.711066 80.2101777,16.1620812 C79.8903807,15.6138579 79.7297208,14.9818782 79.7297208,14.2691878 L83.2977411,14.2691878 C83.3167766,14.6346701 83.5040863,14.9735025 83.8611929,15.2849239 C84.2175381,15.5955838 84.6614467,15.7509137 85.1921574,15.7509137 C85.6132234,15.7326396 85.9787056,15.632132 86.2908883,15.4493909 C86.6015482,15.2658883 86.7568782,15.0100508 86.7568782,14.6795939 C86.7568782,14.4062437 86.6655076,14.1861929 86.4827665,14.0217259 C86.299264,13.8572589 85.9695685,13.7103046 85.4944416,13.5823858 L83.8200761,13.1430457 Z" id="Fill-13"></path>
                    <polygon id="Fill-15" points="99.9051015 5.59492386 99.9051015 8.61395939 97.2157614 8.61395939 97.2157614 18.4134518 93.4269289 18.4134518 93.4269289 8.61395939 91.093934 8.61395939 91.093934 5.59492386 93.4269289 5.59492386 93.4269289 0.681472081 97.2157614 0.681472081 97.2157614 5.59492386"></polygon>
                </g>
                <g>
                    <path d="M35.6561864,26.3520498 C35.6237914,27.6428113 35.5964356,28.9422114 35.2573678,30.2048971 C34.989569,31.2005039 34.6159465,32.1457185 33.9356511,32.941916 C32.9177277,34.2391564 31.5556973,34.963365 29.9741006,35.3168306 C29.0656004,35.5198394 28.1434222,35.5961477 27.2140452,35.6335819 C23.0286091,35.802036 18.8424532,35.7221283 14.6562972,35.7062907 C13.2813087,35.7012515 11.9048805,35.6688565 10.5356511,35.5205593 C8.50700323,35.3009931 6.69216244,34.6379751 5.34308999,33.0059862 C4.48426211,31.9679059 4.04368989,30.7527328 3.82340378,29.4482935 C3.52392986,27.6788057 3.56352377,25.8877213 3.52464975,24.1023959 C3.49873373,22.899461 3.51961052,21.6958062 3.51889063,20.4921514 C3.51601108,17.3267983 3.45985971,14.1607254 3.67294693,10.9996917 C3.73917674,10.0192026 3.91482972,9.05671066 4.26757545,8.13237287 C4.99034425,6.23690448 6.30846147,4.94614305 8.2075293,4.24353115 C9.34999354,3.82095616 10.5435699,3.68489709 11.7493844,3.62946562 C15.5575985,3.45237287 19.3686922,3.53444024 23.179066,3.52580157 C24.4719871,3.52220212 25.7649082,3.54811814 27.0571094,3.61506784 C28.255725,3.6776982 29.4536207,3.73744901 30.6112026,4.10099308 C33.2956696,4.9432635 34.8052773,6.81497554 35.3631915,9.52175911 C35.5913964,10.6303886 35.6345898,11.7577351 35.6597859,12.882922 C35.7612903,17.3728713 35.7699289,21.8628205 35.6561864,26.3520498 M39.1728454,13.0808916 C39.1289322,11.1587873 39.0274278,9.24388186 38.4176816,7.38584772 C37.7510641,5.35432026 36.5870032,3.69713521 34.9024624,2.39485556 C33.6138606,1.39852884 32.1380877,0.824777111 30.5644098,0.474191048 C29.0951158,0.14664144 27.5977462,0.107047531 26.1025362,0.066013844 C22.4562972,-0.0326109829 18.8086184,0.00194370097 15.1616594,0.0271398246 C13.169006,0.0408177204 11.1705934,0.0400978311 9.19665713,0.375566221 C7.3573401,0.688718043 5.65336225,1.33877803 4.17614952,2.51363729 C1.66013659,4.51564928 0.521991694,7.21811352 0.213879096,10.335234 C0.061262575,11.8772367 0.0360664513,13.4264384 0.0216686664,14.9742003 C0.000791878173,17.1245095 0.00583110291,19.2748186 7.19889248e-05,21.4251278 C0.0130299954,23.6870198 0.0115902169,25.948192 0.157007845,28.2064845 C0.252033226,29.6750586 0.498955238,31.1105178 1.03887217,32.4883858 C1.5125593,33.6985196 2.18925519,34.7733143 3.07327919,35.7278874 C3.77805076,36.4888103 4.57496816,37.1388703 5.47698939,37.6276751 C6.71519889,38.2993318 8.04915367,38.7240665 9.44933826,38.9407531 C10.0108519,39.0271398 10.5759649,39.104168 11.1381984,39.1264845 C11.6579585,39.1473613 12.1777185,39.1869552 12.7003581,39.1934342 C17.8850005,39.2524652 23.0703627,39.338132 28.2528454,39.0811315 C29.4831361,39.0206608 30.6911103,38.8075736 31.8645298,38.4231527 C33.2870309,37.9573844 34.5641144,37.2389349 35.6662649,36.2210115 C37.2824162,34.7121237 38.2557065,32.8483304 38.7373124,30.7045002 C39.0727808,29.2078505 39.1361311,27.6845648 39.1714056,26.162719 C39.2707503,21.8023498 39.2714702,17.4412607 39.1728454,13.0808916" id="Fill-1"></path>
                    <path d="M20.312323,20.8560554 C20.3116031,20.8826913 20.3080037,20.9086073 20.3044042,20.9352432 C20.3015247,20.9554001 20.3000849,20.975557 20.2957656,20.994994 C20.2914462,21.0151509 20.2835275,21.0353078 20.2770485,21.0561846 C20.2691297,21.0806608 20.2619308,21.1051371 20.2518523,21.1281735 C20.2496927,21.131773 20.2489728,21.1360923 20.247533,21.1404116 C20.2324153,21.1728066 20.2144181,21.203042 20.1949811,21.2318376 C20.1942612,21.2332773 20.1921015,21.235437 20.1913816,21.2368768 C20.1690651,21.2692718 20.1445888,21.2987873 20.1179529,21.3261431 C20.110754,21.3333419 20.1035551,21.339821 20.0956364,21.3470198 C20.0725999,21.3693364 20.0481237,21.3894933 20.0222077,21.4082104 C20.0142889,21.4139695 20.0063701,21.4197287 19.9977314,21.4254878 C19.9646165,21.4470844 19.9300618,21.4665215 19.8940674,21.4816391 C19.8861486,21.4852386 19.8775099,21.4873982 19.8695911,21.4909977 C19.8393558,21.5025159 19.8084006,21.5125944 19.7760055,21.5197933 C19.7644873,21.5226728 19.753689,21.5248325 19.7414509,21.5269922 C19.7004172,21.534191 19.6593835,21.5399502 19.61691,21.5399502 C19.6082713,21.5399502 19.5996327,21.5370706 19.590994,21.5370706 C19.5506802,21.5349109 19.5110863,21.5320314 19.4722123,21.5241126 C19.460694,21.521233 19.4484559,21.5161938 19.4362178,21.5125944 C19.4009432,21.5032358 19.3656687,21.4924375 19.3325538,21.4773198 C19.3282344,21.4751601 19.324635,21.4751601 19.3203156,21.4730005 L15.4617093,19.6531204 C15.1140028,19.4889857 14.9657056,19.0743295 15.1291204,18.726623 C15.2932552,18.3796364 15.7079114,18.2298994 16.0556179,18.3940341 L18.921497,19.7452663 L18.921497,13.7385104 C18.921497,13.3540895 19.233209,13.0430974 19.6176299,13.0430974 C20.0020508,13.0430974 20.3130429,13.3540895 20.3130429,13.7385104 L20.3130429,20.8438173 L20.3137628,20.8438173 C20.3137628,20.8474167 20.312323,20.851736 20.312323,20.8560554 M19.6176299,9.56243286 C14.0600849,9.56243286 9.55429811,14.0682197 9.55429811,19.6257647 C9.55429811,25.1825898 14.0600849,29.6890964 19.6176299,29.6890964 C25.1751749,29.6890964 29.6809617,25.1833096 29.6809617,19.6257647 C29.6809617,14.0682197 25.1751749,9.56243286 19.6176299,9.56243286" id="Fill-4"></path>
                </g>
            </g>
        </g>
    </g>
</svg>