<?xml version="1.0" encoding="UTF-8"?>
<svg width="150px" height="42px" viewBox="0 0 150 42" version="1.1" xmlns="http://www.w3.org/2000/svg" xmlns:xlink="http://www.w3.org/1999/xlink">
    <!-- Generator: Sketch 47.1 (45422) - http://www.bohemiancoding.com/sketch -->
    <title>logo - light</title>
    <desc>Created with Sketch.</desc>
    <defs>
        <linearGradient x1="0%" y1="0%" x2="100%" y2="100%" id="linearGradient-1">
            <stop stop-color="white" offset="0%"></stop>
            <stop stop-color="white" offset="100%"></stop>
        </linearGradient>
    </defs>
    <g id="Page-1" stroke="none" stroke-width="1" fill="none" fill-rule="evenodd">
        <g id="neptune---landing-page" transform="translate(-360.000000, -29.000000)">
            <g id="logo---light" transform="translate(360.000000, 29.000000)">
                <path d="M49.0390223,13.644708 L51.2077374,13.644708 L51.2077374,16.185708 C52.1932123,14.604828 53.6865084,13.333908 56.192933,13.333908 C59.6865084,13.333908 61.7705866,15.705228 61.7705866,19.178628 L61.7705866,28.242228 L59.6010335,28.242228 L59.6010335,19.714548 C59.6010335,17.004708 58.1647207,15.309588 55.5736592,15.309588 C53.0672346,15.309588 51.2077374,17.144988 51.2077374,19.885068 L51.2077374,28.242228 L49.0390223,28.242228 L49.0390223,13.644708 Z" id="Fill-1" fill="#FFFFFF"></path>
                <path d="M75.2368156,20.138244 C75.0113966,17.512404 73.5181006,15.168804 70.5893296,15.168804 C68.0259218,15.168804 66.1664246,17.315004 65.8563687,20.138244 L75.2368156,20.138244 Z M63.659162,20.985804 L63.659162,20.928684 C63.659162,16.721964 66.5896089,13.333404 70.6454749,13.333404 C74.9552514,13.333404 77.4340223,16.778244 77.4340223,21.042084 C77.4340223,21.352044 77.4340223,21.494004 77.4055307,21.747684 L65.8563687,21.747684 C66.1664246,24.910284 68.3921229,26.689404 70.9831844,26.689404 C73.0111173,26.689404 74.3636313,25.870404 75.5745251,24.628044 L76.9262011,25.841844 C75.4613966,27.507564 73.7158659,28.580244 70.9270391,28.580244 C66.9549721,28.580244 63.659162,25.503324 63.659162,20.985804 L63.659162,20.985804 Z" id="Fill-3" fill="#FFFFFF"></path>
                <path d="M91.8853073,20.985636 L91.8853073,20.928516 C91.8853073,17.455956 89.5464804,15.282036 86.7584916,15.282036 C84.0551397,15.282036 81.4908939,17.597076 81.4908939,20.900796 L81.4908939,20.957076 C81.4908939,24.345636 84.0551397,26.604396 86.7584916,26.604396 C89.5758101,26.604396 91.8853073,24.515316 91.8853073,20.985636 L91.8853073,20.985636 Z M79.4068156,13.644876 L81.5755307,13.644876 L81.5755307,16.580676 C82.7872626,14.858676 84.4489944,13.334076 87.1531844,13.334076 C90.6459218,13.334076 94.1110056,16.101036 94.1110056,20.900796 L94.1110056,20.957076 C94.1110056,25.701396 90.6744134,28.552356 87.1531844,28.552356 C84.4489944,28.552356 82.7026257,27.112596 81.5755307,25.446876 L81.5755307,32.759916 L79.4068156,32.759916 L79.4068156,13.644876 Z" id="Fill-5" fill="#FFFFFF"></path>
                <path d="M97.0412849,24.373524 L97.0412849,15.564444 L95.013352,15.564444 L95.013352,13.645044 L97.0412849,13.645044 L97.0412849,9.240084 L99.21,9.240084 L99.21,13.645044 L103.829832,13.645044 L103.829832,15.564444 L99.21,15.564444 L99.21,24.092124 C99.21,25.898964 100.196313,26.519724 101.661117,26.519724 C102.421173,26.519724 103.012793,26.378604 103.772849,26.011524 L103.772849,27.874644 C103.012793,28.298844 102.195754,28.496244 101.154134,28.496244 C98.7876536,28.496244 97.0412849,27.337884 97.0412849,24.373524" id="Fill-7" fill="#FFFFFF"></path>
                <path d="M105.605698,22.708308 L105.605698,13.644708 L107.774413,13.644708 L107.774413,22.171548 C107.774413,24.882228 109.211564,26.575668 111.802626,26.575668 C114.282235,26.575668 116.167709,24.740268 116.167709,22.001868 L116.167709,13.644708 L118.309609,13.644708 L118.309609,28.242228 L116.167709,28.242228 L116.167709,25.701228 C115.183073,27.282108 113.689777,28.552188 111.182514,28.552188 C107.690615,28.552188 105.605698,26.180868 105.605698,22.708308" id="Fill-9" fill="#FFFFFF"></path>
                <path d="M121.353184,13.644708 L123.521899,13.644708 L123.521899,16.185708 C124.508212,14.604828 126.001508,13.333908 128.507933,13.333908 C132.00067,13.333908 134.084749,15.705228 134.084749,19.178628 L134.084749,28.242228 L131.915196,28.242228 L131.915196,19.714548 C131.915196,17.004708 130.479721,15.309588 127.887821,15.309588 C125.381397,15.309588 123.521899,17.144988 123.521899,19.885068 L123.521899,28.242228 L121.353184,28.242228 L121.353184,13.644708 Z" id="Fill-11" fill="#FFFFFF"></path>
                <path d="M147.550978,20.138244 C147.325559,17.512404 145.832263,15.168804 142.903492,15.168804 C140.340922,15.168804 138.481425,17.315004 138.171369,20.138244 L147.550978,20.138244 Z M135.974162,20.985804 L135.974162,20.928684 C135.974162,16.721964 138.903771,13.333404 142.959637,13.333404 C147.269413,13.333404 149.748184,16.778244 149.748184,21.042084 C149.748184,21.352044 149.748184,21.494004 149.720531,21.747684 L138.171369,21.747684 C138.481425,24.910284 140.706285,26.689404 143.298184,26.689404 C145.326117,26.689404 146.677793,25.870404 147.888687,24.628044 L149.241201,25.841844 C147.776397,27.507564 146.030028,28.580244 143.241201,28.580244 C139.269972,28.580244 135.974162,25.503324 135.974162,20.985804 L135.974162,20.985804 Z" id="Fill-13" fill="#FFFFFF"></path>
                <g id="Group-8" fill="url(#linearGradient-1)">
                    <path d="M20.9496369,1.526196 C10.2376257,1.526196 1.5225419,10.262196 1.5225419,20.999916 C1.5225419,31.737636 10.2376257,40.473636 20.9496369,40.473636 C31.662486,40.473636 40.3767318,31.737636 40.3767318,20.999916 C40.3767318,10.262196 31.662486,1.526196 20.9496369,1.526196 M20.9496369,41.999916 C9.39796089,41.999916 -8.37988821e-05,32.579316 -8.37988821e-05,20.999916 C-8.37988821e-05,9.420516 9.39796089,-8.4e-05 20.9496369,-8.4e-05 C32.5013128,-8.4e-05 41.8993575,9.420516 41.8993575,20.999916 C41.8993575,32.579316 32.5013128,41.999916 20.9496369,41.999916" id="Fill-15"></path>
                    <path d="M20.9496369,33.332208 C14.1661173,33.332208 8.64712291,27.799968 8.64712291,21.000168 C8.64712291,14.200368 14.1661173,8.668128 20.9496369,8.668128 C27.7331564,8.668128 33.2521508,14.200368 33.2521508,21.000168 C33.2521508,27.799968 27.7331564,33.332208 20.9496369,33.332208 M20.9496369,6.274128 C12.8487989,6.274128 6.25885475,12.879888 6.25885475,21.000168 C6.25885475,29.120448 12.8487989,35.726208 20.9496369,35.726208 C29.0504749,35.726208 35.641257,29.120448 35.641257,21.000168 C35.641257,12.879888 29.0504749,6.274128 20.9496369,6.274128" id="Fill-18"></path>
                    <path d="M20.9496369,36.489516 C12.4155587,36.489516 5.49712291,29.554476 5.49712291,20.999916 C5.49712291,12.445356 12.4155587,5.510316 20.9496369,5.510316 C29.4837151,5.510316 36.4021508,12.445356 36.4021508,20.999916 C36.4021508,29.554476 29.4837151,36.489516 20.9496369,36.489516 M20.9496369,3.326316 C11.2122067,3.326316 3.31835196,11.239116 3.31835196,20.999916 C3.31835196,30.760716 11.2122067,38.673516 20.9496369,38.673516 C30.687067,38.673516 38.5809218,30.760716 38.5809218,20.999916 C38.5809218,11.239116 30.687067,3.326316 20.9496369,3.326316" id="Fill-20"></path>
                </g>
            </g>
        </g>
    </g>
</svg>