<?xml version="1.0" encoding="UTF-8"?>
<svg width="17px" height="17px" viewBox="0 0 17 17" version="1.1" xmlns="http://www.w3.org/2000/svg" xmlns:xlink="http://www.w3.org/1999/xlink">
    <!-- Generator: Sketch 47.1 (45422) - http://www.bohemiancoding.com/sketch -->
    <title>in</title>
    <desc>Created with Sketch.</desc>
    <defs></defs>
    <g id="Page-1" stroke="none" stroke-width="1" fill="none" fill-rule="evenodd" opacity="0.75">
        <g id="2-Home-2" transform="translate(-1635.000000, -973.000000)" fill-rule="nonzero">
            <g id="Group-6" transform="translate(1599.000000, 210.000000)">
                <g id="Group-5" transform="translate(1.000000, 602.000000)">
                    <g id="Group-2" transform="translate(1.000000, 161.000000)">
                        <g id="in" transform="translate(34.000000, 0.000000)">
                            <path d="M8.48316832,0.00336633663 C6.18059406,0.00336633663 5.89108911,0.0134653465 4.98554455,0.0538613861 C4.08336634,0.0942574257 3.46732673,0.239009901 2.92871287,0.447722772 C2.36990099,0.663168317 1.89861386,0.956039604 1.42732673,1.42732673 C0.956039604,1.89861386 0.666534653,2.37326733 0.447722772,2.92871287 C0.239009901,3.46732673 0.0942574257,4.08336634 0.0538613861,4.98891089 C0.0134653465,5.89108911 0.00336633663,6.18059406 0.00336633663,8.48316832 C0.00336633663,10.7857426 0.0134653465,11.0752475 0.0538613861,11.9807921 C0.0942574257,12.8829703 0.239009901,13.4990099 0.447722772,14.0409901 C0.663168317,14.599802 0.956039604,15.0710891 1.42732673,15.5423762 C1.89861386,16.0136634 2.37326733,16.3031683 2.92871287,16.5219802 C3.46732673,16.7306931 4.08336634,16.8754455 4.98891089,16.9158416 C5.89445545,16.9562376 6.18059406,16.9663366 8.48653465,16.9663366 C10.7924752,16.9663366 11.0786139,16.9562376 11.9841584,16.9158416 C12.8863366,16.8754455 13.5023762,16.7306931 14.0443564,16.5219802 C14.6031683,16.3065347 15.0744554,16.0136634 15.5457426,15.5423762 C16.0170297,15.0710891 16.3065347,14.5964356 16.5253465,14.0409901 C16.7340594,13.5023762 16.8788119,12.8863366 16.9192079,11.9807921 C16.959604,11.0752475 16.969703,10.7891089 16.969703,8.48316832 C16.969703,6.17722772 16.959604,5.89108911 16.9192079,4.98554455 C16.8788119,4.08336634 16.7340594,3.46732673 16.5253465,2.92534653 C16.309901,2.36653465 16.0170297,1.89524752 15.5457426,1.4239604 C15.0744554,0.952673267 14.599802,0.663168317 14.0443564,0.444356436 C13.5057426,0.235643564 12.889703,0.0908910891 11.9841584,0.0504950495 C11.0752475,0.0134653465 10.7857426,0.00336633663 8.48316832,0.00336633663 L8.48316832,0.00336633663 Z" id="Shape" fill="#787878"></path>
                            <path d="M8.48316832,4.12712871 C6.07960396,4.12712871 4.12712871,6.07623762 4.12712871,8.48316832 C4.12712871,10.890099 6.07960396,12.8392079 8.48316832,12.8392079 C10.8867327,12.8392079 12.8392079,10.8867327 12.8392079,8.48316832 C12.8392079,6.07960396 10.8867327,4.12712871 8.48316832,4.12712871 Z M8.48316832,11.3108911 C6.92118812,11.3108911 5.65544554,10.0451485 5.65544554,8.48316832 C5.65544554,6.92118812 6.92118812,5.65544554 8.48316832,5.65544554 C10.0451485,5.65544554 11.3108911,6.92118812 11.3108911,8.48316832 C11.3108911,10.0451485 10.0451485,11.3108911 8.48316832,11.3108911 Z" id="Shape" fill="#FFFFFF"></path>
                            <circle id="Oval" fill="#FFFFFF" cx="13.0108911" cy="3.95544554" r="1.01663366"></circle>
                        </g>
                    </g>
                </g>
            </g>
        </g>
    </g>
</svg>